# xmcd CD database file
#
# Track frame offsets:
#	150
#	14796
#	26896
#	49569
#	65184
#	80558
#	91870
#	119707
#	136010
#	147535
#	162510
#	173536
#	189464
#	202549
#	218461
#	234136
#
# Disc length: 3234 seconds
#
# Revision: 0
# Processed by: cddbd v1.5.2PL0 Copyright (c) Steve Scherf et al.
# Submitted via: CDex 1.51
#
DISCID=d90ca010
DTITLE=B. B. King - Definitive Collection
DYEAR=1997
DGENRE=Blues
TTITLE0=Mr. Pawnbroker
TTITLE1=Paying The Cost To Be The Boss
TTITLE2=Every Day I Have The Blues
TTITLE3=How Blue Can You Get
TTITLE4=It's My Own Fault Baby
TTITLE5=She's Dynamite
TTITLE6=Sweet
TTITLE7=The Other Night Blues
TTITLE8=Shake It Up And Go
TTITLE9=B. B. Boogie
TTITLE10=Catfish Blues
TTITLE11=Evil Child
TTITLE12=Walking And Crying
TTITLE13=Long Nights
TTITLE14=The Letter
TTITLE15=A New Way Of Driving
EXTD=YEAR: 1997
EXTT0=
EXTT1=
EXTT2=
EXTT3=
EXTT4=
EXTT5=
EXTT6=
EXTT7=
EXTT8=
EXTT9=
EXTT10=
EXTT11=
EXTT12=
EXTT13=
EXTT14=
EXTT15=
PLAYORDER=
